<?xml version="1.0" encoding="utf-8"?>

<!DOCTYPE svg PUBLIC "-//W3C//DTD SVG 1.1//EN" "http://www.w3.org/Graphics/SVG/1.1/DTD/svg11.dtd">
<svg version="1.1" id="Layer_1" xmlns="http://www.w3.org/2000/svg" xmlns:xlink="http://www.w3.org/1999/xlink" x="0px" y="0px"
	 viewBox="0 0 2464.774 1621.165" enable-background="new 0 0 2464.774 1621.165" xml:space="preserve">
<path d="M2439.076,1238.685V835.939L2192.923,678.4l-186.544-413.122c-22.835-50.894-87.31-92.53-143.183-92.53h-7.414v-63.054
	c0-46.441-37.605-84.164-84.167-84.164c-46.444,0-84.107,37.723-84.107,84.164v63.054h-86.184V10.583H81.218v1072.105H16.09v128.295
	h179.959l79.957,125.865h23.843c18.092,154.216,148.939,273.735,308.078,273.735c158.784,0,289.513-119.519,307.841-273.735h830.341
	c18.208,154.216,149.115,273.735,308.078,273.735c158.962,0,289.689-119.519,307.839-273.735h86.658v-98.163H2439.076z
	 M607.927,1458.322c-87.369-0.116-158.131-70.642-158.25-158.01c0.119-87.194,70.881-157.897,158.25-158.133
	c87.015,0.235,157.836,70.939,157.836,158.133C765.763,1387.68,695.061,1458.206,607.927,1458.322 M1093.296,635.337H942.223
	v151.077H764.814V635.337H613.741V457.872h151.073V306.857h177.409v151.015h151.073V635.337z M1601.323,627.63V274.235h261.873
	c15.777,0,44.306,18.445,50.832,32.857l144.727,320.537H1601.323z M2054.187,1458.322c-87.431-0.058-157.896-70.642-158.133-158.01
	c0.237-87.136,70.702-157.897,158.133-158.133c87.19,0.235,157.834,70.997,157.894,158.133
	C2212.021,1387.68,2141.557,1458.264,2054.187,1458.322"/>
</svg>
