<?xml version="1.0" encoding="UTF-8"?><svg id="Capa_1" xmlns="http://www.w3.org/2000/svg" xmlns:xlink="http://www.w3.org/1999/xlink" viewBox="0 0 167.04 208.8"><defs><style>.cls-1{fill:url(#Degradado_sin_nombre_6-2);}.cls-2{fill:#fff;}.cls-3{fill:url(#Degradado_sin_nombre_6);}.cls-4{fill:url(#Degradado_sin_nombre_6-3);}</style><linearGradient id="Degradado_sin_nombre_6" x1="20.64" y1="107.78" x2="142.9" y2="107.78" gradientUnits="userSpaceOnUse"><stop offset="0" stop-color="#b5c951"/><stop offset="1" stop-color="#3fad5c"/></linearGradient><linearGradient id="Degradado_sin_nombre_6-2" x1="40.84" y1="114.69" x2="120.7" y2="114.69" xlink:href="#Degradado_sin_nombre_6"/><linearGradient id="Degradado_sin_nombre_6-3" x1="60.38" y1="94.08" x2="128.16" y2="94.08" xlink:href="#Degradado_sin_nombre_6"/></defs><path class="cls-3" d="M21.41,43.2s-3.07,55.2,3.07,92.16c6.14,36.96,56.12,59.32,56.12,59.32,0,0,30.19-4.09,48.75-30,5.73-8,10.35-18.08,12.63-30.76,2.18-12.11-.19-89.36-.19-89.36-9.3-1.83-23.25-3.26-36.2-10-8.39-4.37-15.41-9.19-21.09-13.68-5.65,5.04-14.55,11.76-26.7,16.56-15.13,5.98-28.42,6.26-36.39,5.76Z"/><path class="cls-2" d="M75.89,35.16c-4.99,3.34-13.03,7.87-23.98,10.8-8.43,2.25-15.89,2.83-21.38,2.88V114.36l45.36-2.88V35.16Z"/><path class="cls-2" d="M87.48,35.16c5.16,3.34,13.47,7.87,24.81,10.8,8.72,2.25,16.44,2.83,22.11,2.88V114.36l-46.92-2.88V35.16Z"/><circle class="cls-1" cx="80.77" cy="114.69" r="39.93"/><circle class="cls-2" cx="80.77" cy="114.69" r="34.26"/><path class="cls-4" d="M127.4,60.43c-1.08-1.32-2.62-1.11-3.71,0-14.17,14.38-27.18,30.47-38.75,47.99-2.54,3.84-4.99,7.77-7.39,11.73-4.33-6.82-8.57-13.74-12.24-21.13-1.75-3.52-6.29-.3-4.53,3.24,4.44,8.94,9.71,17.19,14.97,25.42,1.14,1.78,3.25,.82,4.12-.65,10.61-17.96,22.69-34.6,35.97-49.66,3.76-4.26,7.62-8.39,11.57-12.4,1.09-1.11,.94-3.39,0-4.54Z"/></svg>